<svg xmlns="http://www.w3.org/2000/svg" width="44" height="34" viewBox="0 0 44 34">
    <path fill="#242424" d="M34.255 16.336c.078.102.111.145.133.179l.014.024.08.168 9.361 15.548.051.096c.268.579.011 1.225-.528 1.507-.133.07-.278.115-.427.133l-.15.009H24.21c-.64 0-1.21-.49-1.21-1.17 0-.156.032-.309.102-.466l.06-.12 9.285-15.405.112-.23.074-.129c.088-.151.254-.324.524-.42.446-.16.845-.002 1.098.276zm-.775.677l-.017.026-.125.253-4.965 8.24.057.251.07.243.084.233h-.649l-3.917 6.502-.013.034-.005.034c0 .072.06.143.152.164l.058.007h18.58l.058-.007.054-.02c.07-.037.103-.099.097-.158l-.013-.044-9.368-15.558-.079-.165c-.024-.048-.038-.06-.059-.035zM36 0c1.054 0 1.918.816 1.995 1.85L38 2v15c-.278-.122-.563.044-.854.026L37 17V2c0-.513-.386-.936-.883-.993L36 1H2c-.513 0-.936.386-.993.883L1 2v26c0 .513.386.936.883.993L2 29h20v1H2C.946 30 .082 29.184.005 28.15L0 28V2C0 .946.816.082 1.85.005L2 0h34zm-2 28v2h-1v-2h1zm0-5v4h-1v-4h1zM16 10l7.5 4.5L16 19v-9zm1 1.838v5.324l4.66-2.662L17 11.838z"/>
</svg>
