<svg xmlns="http://www.w3.org/2000/svg" width="48" height="35" viewBox="0 0 48 35">
    <path fill="#8C8E94" fill-rule="evenodd" d="M37 13c6.075 0 11 4.925 11 11s-4.925 11-11 11-11-4.925-11-11 4.925-11 11-11zm0 1c-5.523 0-10 4.477-10 10s4.477 10 10 10 10-4.477 10-10-4.477-10-10-10zm2.25 14.75v1.5h-4.5v-1.5h4.5zM37 0c1.054 0 1.918.816 1.995 1.85L39 2v10c-.278-.122-.563.044-.854.026L38 12V2c0-.513-.386-.936-.883-.993L37 1H2c-.513 0-.936.386-.993.883L1 2v26c0 .513.386.936.883.993L2 29h24v1H2C.946 30 .082 29.184.005 28.15L0 28V2C0 .946.816.082 1.85.005L2 0h35zm6 24.5l1 .545c-1.956 2.89-3.911 2.476-5.867.16l-.133-.16 1-.545c1.5 1.289 2.5 1.5 4 0zm-8 0l1 .545c-1.956 2.89-3.911 2.476-5.867.16l-.133-.16 1-.545c1.5 1.289 2.5 1.5 4 0zm5.928-5.5c.588 1.47 1.27 2 3.072 2v1c-2 0-3.5-.5-4-2.5l.928-.5zm-7.856 0l.928.5c-.469 2.344-1.816 2.49-3.631 2.5H30v-1c1.802 0 2.484-.53 3.072-2zM16 10l7.5 4.5L16 19v-9zm1 1.838v5.324l4.66-2.662L17 11.838z"/>
</svg>
