<svg xmlns="http://www.w3.org/2000/svg" width="48" height="35" viewBox="0 0 48 35">
    <path fill="#8C8E94" fill-rule="evenodd" d="M37 13c6.075 0 11 4.925 11 11s-4.925 11-11 11-11-4.925-11-11 4.925-11 11-11zm0 1c-5.523 0-10 4.477-10 10s4.477 10 10 10 10-4.477 10-10-4.477-10-10-10zm0-14c1.054 0 1.918.816 1.995 1.85L39 2v10c-.278-.122-.563.044-.854.026L38 12V2c0-.513-.386-.936-.883-.993L37 1H2c-.513 0-.936.386-.993.883L1 2v26c0 .513.386.936.883.993L2 29h24v1H2C.946 30 .082 29.184.005 28.15L0 28V2C0 .946.816.082 1.85.005L2 0h35zm2.755 20.212c.284-.283.744-.284 1.032.005.286.286.286.75.004 1.032l-2.753 2.753 2.753 2.753c.284.284.284.744-.004 1.032-.286.286-.75.286-1.032.004l-2.753-2.753-2.753 2.753c-.284.284-.744.284-1.032-.004-.287-.286-.286-.75-.005-1.032l2.754-2.753-2.754-2.753c-.283-.284-.284-.744.005-1.032.286-.287.75-.286 1.032-.005l2.753 2.754zM16 10l7.5 4.5L16 19v-9zm1 1.838v5.324l4.66-2.662L17 11.838z"/>
</svg>
