<?xml version="1.0" encoding="UTF-8"?>
<svg width="16px" height="16px" viewBox="0 0 16 16" version="1.1" xmlns="http://www.w3.org/2000/svg" xmlns:xlink="http://www.w3.org/1999/xlink">
    <!-- Generator: Sketch 46.2 (44496) - http://www.bohemiancoding.com/sketch -->
    <desc>Created with Sketch.</desc>
    <defs></defs>
    <g id="Page-1" stroke="none" stroke-width="1" fill="none" fill-rule="evenodd">
        <g id="Downloader" transform="translate(-629.000000, -163.000000)" fill-rule="nonzero" fill="#FFFFFF">
            <g id="Download--button" transform="translate(426.000000, 154.000000)">
                <g id="settings-icon-smaller" transform="translate(203.000000, 9.000000)">
                    <path d="M9.11528464,14.3509699 L9.1159305,14.3428142 C9.11569221,14.3455256 9.11547686,14.3482441 9.11528464,14.3509699 Z M6.88491849,14.3557542 L6.8845533,14.3510991 C6.884682,14.3526482 6.88480374,14.3541999 6.88491849,14.3557542 Z M2.83386621,3.93137325 L2.83679501,3.93272303 C2.8358176,3.9322769 2.83484139,3.931827 2.83386621,3.93137325 Z M6.8846002,1.6477651 L6.88407916,1.65440157 C6.8842679,1.65219441 6.88444162,1.64998222 6.8846002,1.6477651 Z M9.11490326,1.64337838 C9.11503988,1.64523477 9.11518671,1.64708763 9.11534369,1.64893689 L9.11490326,1.64337838 Z M9.26129678,12.5071722 L9.79442201,12.3050487 C10.2440104,12.1345965 10.6627797,11.9017996 11.0365374,11.6148973 L11.4682378,11.2835173 L11.9622244,11.5118924 L12.8799666,11.9361982 C13.3666863,11.3862682 13.7468113,10.7623107 14.0042858,10.0916276 L12.7244029,9.25269381 L12.813465,8.67966827 C12.8836077,8.22837076 12.8836077,7.77009144 12.813465,7.31879394 L12.7243482,6.74541635 L13.2098247,6.42758578 L14.0044265,5.90741901 C13.7479422,5.23843483 13.3682128,4.61485685 12.8798079,4.06303298 L11.4688283,4.71431114 L11.0376705,4.38443327 C10.658184,4.09408899 10.2422503,3.86285193 9.79499182,3.69362931 L9.26136249,3.49172781 L9.21629044,2.92296336 L9.14300813,1.99808368 C8.3857147,1.86697329 7.60943229,1.8671433 6.85712826,1.99772023 L6.73983452,3.49163678 L6.20568441,3.69366565 C5.75635965,3.86361146 5.33795903,4.09620344 4.96481779,4.38311709 L4.53357234,4.71470791 L4.03952422,4.48702047 L3.11998974,4.06323796 C2.63325832,4.61365911 2.25306504,5.23780815 1.995818,5.90720152 L3.27546352,6.74567036 L3.18636874,7.3188153 C3.11621732,7.77009792 3.11621732,8.22836428 3.18636874,8.6796469 L3.2754088,9.25243976 L2.79072738,9.57040788 L1.9958465,10.0918639 C2.25351575,10.7619281 2.63380215,11.3861647 3.11986284,11.9359492 L4.53327895,11.2835287 L4.96481779,11.6153451 C5.33795903,11.9022588 5.75635965,12.1348507 6.20568441,12.3047966 L6.73986625,12.5068374 L6.78453725,13.0762013 L6.85705315,14.0005566 C7.23407496,14.0660491 7.61660072,14.0993796 7.99853936,14.1000011 C8.3835894,14.099411 8.76750766,14.0659284 9.14302544,14.0006673 L9.26129678,12.5071722 Z M14.655249,8.36611085 L15.3012799,8.78959098 C15.7951714,9.1192317 16.018771,9.72948785 15.8385912,10.2964046 C15.4717105,11.4595649 14.8287398,12.5269259 13.9576178,13.4198302 C13.5557865,13.828839 12.9354545,13.9398194 12.4076812,13.7008817 L11.6766345,13.3629113 C11.4492414,13.5086532 11.2125062,13.6407552 10.9678271,13.7584652 L10.9102364,14.4854692 C10.8684445,15.076789 10.4375282,15.559237 9.85901902,15.6927796 C9.25028524,15.8295142 8.62687873,15.8990403 7.99846224,15.8999988 C7.37293596,15.8989866 6.74958724,15.829467 6.13316359,15.6910252 C5.56228475,15.5575507 5.13328644,15.0772499 5.09011859,14.492415 L5.03254407,13.7585864 C4.78775016,13.6408924 4.5509397,13.5087269 4.3235254,13.3628496 L3.58585833,13.7033395 C3.06410948,13.9404113 2.44249973,13.8290058 2.03956424,13.4171163 C1.171692,12.5262555 0.529053171,11.4594454 0.161491879,10.2971834 C-0.0186692795,9.72780119 0.206124348,9.11748177 0.705443129,8.78565329 L1.34459366,8.36634798 C1.33014904,8.121909 1.33014235,7.87689378 1.34457358,7.63245426 L0.699923986,7.21003746 C0.206410182,6.88105984 -0.0178980367,6.27205831 0.161384941,5.7024954 C0.528757338,4.53985698 1.17150209,3.47287103 2.03497652,2.58696824 C2.43733542,2.16784636 3.06771752,2.05486868 3.59024436,2.29800823 L4.32322046,2.63580823 C4.55074033,2.48984551 4.78766642,2.35760803 5.03258389,2.23985668 L5.08966129,1.51301957 C5.13192737,0.922953359 5.56122562,0.441241526 6.14107679,0.305624486 C7.36333074,0.0314585048 8.63650635,0.0314585048 9.85998844,0.305900876 C10.4350757,0.435744871 10.8664881,0.919375857 10.9096631,1.50622316 L10.9677982,2.23982998 C11.2120475,2.35737093 11.4486018,2.48951259 11.6767363,2.63584779 L12.4068886,2.29882577 C12.9318811,2.05549779 13.5608997,2.16803228 13.9595491,2.58148222 C14.8290985,3.47201017 15.4722695,4.53970373 15.838404,5.70234297 C16.0180017,6.27037213 15.7948847,6.87931121 15.2946142,7.21415585 L14.6552707,7.63271973 C14.6696797,7.87699218 14.6696724,8.12183898 14.655249,8.36611085 Z"></path>
                    <path d="M8.00048603,5.1 C9.59980579,5.1 10.9,6.40066361 10.9,8 C10.9,9.6000253 9.60006782,10.9 8.00048603,10.9 C6.40015023,10.9 5.1,9.6002434 5.1,8 C5.1,6.40044549 6.4004124,5.1 8.00048603,5.1 Z M8.00048603,6.9 C7.3945352,6.9 6.9,7.39454778 6.9,8 C6.9,8.60600882 7.39414079,9.1 8.00048603,9.1 C8.60594209,9.1 9.1,8.60592593 9.1,8 C9.1,7.39463074 8.60554776,6.9 8.00048603,6.9 Z" id="Path"></path>
                </g>
            </g>
        </g>
    </g>
</svg>