<svg xmlns="http://www.w3.org/2000/svg" width="40" height="40" viewBox="0 0 40 40">
    <defs>
        <linearGradient id="a" x1="-.017%" x2="99.986%" y1="49.989%" y2="49.989%">
            <stop offset="0%" stop-color="#E6E6E6"/>
            <stop offset="16%" stop-color="#F6F6F6"/>
            <stop offset="30%" stop-color="#FFF"/>
            <stop offset="70%" stop-color="#FFF"/>
            <stop offset="84%" stop-color="#F6F6F6"/>
            <stop offset="100%" stop-color="#E6E6E6"/>
        </linearGradient>
        <linearGradient id="b" x1="46.223%" x2="51.205%" y1="1.71%" y2="100.532%">
            <stop offset="0%" stop-color="#FF7800"/>
            <stop offset="60%" stop-color="#FF7800"/>
            <stop offset="76%" stop-color="#FC6F00"/>
            <stop offset="100%" stop-color="#F55A00"/>
        </linearGradient>
        <linearGradient id="c" x1=".783%" x2="102.069%" y1="45.373%" y2="52.228%">
            <stop offset="0%" stop-color="#5E29DD"/>
            <stop offset="35%" stop-color="#8050FF"/>
            <stop offset="100%" stop-color="#8050FF"/>
        </linearGradient>
        <linearGradient id="d" x1="95.095%" x2="17.199%" y1="32.845%" y2="85.265%">
            <stop offset="0%" stop-color="#F3AA0B"/>
            <stop offset="40%" stop-color="#F1C80B"/>
            <stop offset="100%" stop-color="#F1C80B"/>
        </linearGradient>
        <linearGradient id="e" x1="36.259%" x2="57.466%" y1="95.278%" y2="2.435%">
            <stop offset="0%" stop-color="#2D364C"/>
            <stop offset="100%" stop-color="#4E5D85"/>
        </linearGradient>
        <radialGradient id="f" cx="46.367%" cy="51.047%" r="69.97%" fx="46.367%" fy="51.047%" gradientTransform="matrix(.71284 0 0 1 .133 0)">
            <stop offset="0%" stop-color="#FFF"/>
            <stop offset="100%" stop-color="#FFF" stop-opacity="0"/>
        </radialGradient>
        <radialGradient id="g" cx="61.8%" cy="33.095%" r="70.797%" fx="61.8%" fy="33.095%" gradientTransform="scale(.87591 1) rotate(-9.841 .662 -.178)">
            <stop offset="0%" stop-color="#FFF"/>
            <stop offset="100%" stop-color="#FFF" stop-opacity="0"/>
        </radialGradient>
        <radialGradient id="h" cx="18.299%" cy="46.66%" r="121.166%" fx="18.299%" fy="46.66%" gradientTransform="matrix(1 0 0 .44008 0 .261)">
            <stop offset="0%" stop-color="#FFF"/>
            <stop offset="100%" stop-color="#FFF" stop-opacity="0"/>
        </radialGradient>
        <radialGradient id="i" cx="54.939%" cy="78.748%" r="79.036%" fx="54.939%" fy="78.748%" gradientTransform="scale(.69065 1) rotate(-9.841 .672 -.642)">
            <stop offset="0%" stop-color="#FFF"/>
            <stop offset="100%" stop-color="#FFF" stop-opacity="0"/>
        </radialGradient>
    </defs>
    <g fill="none" fill-rule="nonzero">
        <circle cx="20" cy="20" r="18.45" fill="#FFF"/>
        <path fill="url(#a)" d="M8.062 15.259c-.118 8.127 4.854 15.039 11.84 18.294 6.889-3.113 11.886-9.944 11.95-18.027a19.94 19.94 0 0 0-.108-2.193 19.909 19.909 0 0 0-23.566-.012.14.14 0 0 1-.007.056 18.849 18.849 0 0 0-.109 1.882zm1.49-.893c3.722-2.599 7.248-3.203 9.053-3.326h.026c.62-.045 1.057-.05 1.219-.05H20c.155 0 .598 0 1.219.049h.021c1.803.125 5.327.728 9.05 3.325a18.5 18.5 0 0 1-.704 6.444 16.924 16.924 0 0 1-3.091 5.952c-1.67 2.077-3.884 3.783-6.576 5.091-2.674-1.296-4.876-2.992-6.548-5.046a16.949 16.949 0 0 1-3.101-5.914 18.619 18.619 0 0 1-.723-6.525h.005z"/>
        <path fill="url(#b)" d="M8.062 15.259c.01-.636.051-1.264.118-1.882 0-.019 0-.037.008-.056.007-.019 0-.054.01-.08A19.702 19.702 0 0 1 9.5 8.12a19.96 19.96 0 0 1 4.974-7.2l-.072.02-.204.064a19.891 19.891 0 0 0-7.942 33.352c.398.122.801.23 1.21.328 2.558.595 5.209.676 7.8.239a18.778 18.778 0 0 0 4.461-1.3l.08-.036.044-.02.047-.022C12.912 30.293 7.94 23.386 8.062 15.259z"/>
        <path fill="url(#c)" d="M25.68.995A19.943 19.943 0 0 0 14.475.921a19.96 19.96 0 0 0-4.98 7.198 19.702 19.702 0 0 0-1.302 5.121c0 .027-.008.053-.01.08a19.909 19.909 0 0 1 23.565.013l.13.1a20.03 20.03 0 0 1 4.3 4.405 19.716 19.716 0 0 1 3.113 6.813c2.482-10.25-3.5-20.649-13.61-23.656z"/>
        <path fill="url(#d)" d="M36.174 17.837a20.03 20.03 0 0 0-3.69-3.929c-.2-.155-.403-.32-.61-.475l-.13-.1c.075.726.11 1.455.104 2.185-.065 8.084-5.062 14.915-11.95 18.028l-.047.021-.043.02-.08.038a18.778 18.778 0 0 1-4.463 1.299c-2.59.437-5.241.356-7.8-.239a21.956 21.956 0 0 1-1.24-.327 19.9 19.9 0 0 0 33.065-9.707 19.716 19.716 0 0 0-3.116-6.814z"/>
        <path fill="url(#e)" d="M18.788 21.625v3.256a.408.408 0 0 0 .406.404h1.47a.406.406 0 0 0 .404-.404v-3.256a2.884 2.884 0 1 0-2.28 0z"/>
        <ellipse cx="19.898" cy="12.794" fill="url(#f)" opacity=".05" rx="11.932" ry="8.505"/>
        <path fill="url(#g)" d="M25.68.995a19.944 19.944 0 0 0-4.905-.821 12.484 12.484 0 0 0-.938 9.302h.273a19.822 19.822 0 0 1 11.628 3.865l.13.1a20.03 20.03 0 0 1 4.242 4.324c1.19-.431 2.307-1.04 3.313-1.808A19.895 19.895 0 0 0 25.681.995z" opacity=".17"/>
        <path fill="url(#h)" d="M8.062 15.259c.01-.636.051-1.264.118-1.882 0-.019 0-.037.008-.056.007-.019 0-.054.01-.08a19.69 19.69 0 0 1 2.417-7.447 12.66 12.66 0 0 0-2.412-1.738 19.857 19.857 0 0 0-6.451 23.777 12.656 12.656 0 0 0 8.645-3.123 19.1 19.1 0 0 1-2.335-9.451z" opacity=".2"/>
        <path fill="url(#i)" d="M29.78 24.098a20.516 20.516 0 0 1-9.882 9.448l-.047.021-.043.02-.08.038a18.778 18.778 0 0 1-4.463 1.299c-.155.026-.31.051-.465.074a12.195 12.195 0 0 0 .257 4.245 19.918 19.918 0 0 0 22.481-9.967 12.541 12.541 0 0 0-7.758-5.178z" opacity=".38"/>
    </g>
</svg>
