<svg width="16" height="16" viewBox="0 0 16 16" fill="none" xmlns="http://www.w3.org/2000/svg">
<path d="M13.5 5.28811C13.5 5.19376 13.4057 5.09941 13.2736 5.06166L11.6886 4.47666C11.4244 4.36341 11.1225 4.49551 11.1225 4.68426V11.5817C11.1299 11.6355 11.1512 11.6864 11.1843 11.7294C11.2174 11.7724 11.2611 11.8061 11.3112 11.8271L12.9341 12.4121C13.1794 12.5064 13.5002 12.3743 13.5002 12.1667L13.5 5.28811ZM9.47942 10.5437C9.47942 10.4494 9.38507 10.355 9.25297 10.3173L7.66797 9.73226C7.40382 9.61901 7.10187 9.75111 7.10187 9.93981V14.2424C7.10931 14.2961 7.13062 14.347 7.16371 14.39C7.1968 14.4331 7.24052 14.4667 7.29057 14.4877L8.91347 15.0727C9.15877 15.1671 9.47957 15.035 9.47957 14.8274L9.47942 10.5437ZM9.47942 1.74976C9.47942 1.65541 9.38507 1.56106 9.25297 1.52331L7.66797 0.938311C7.40382 0.825061 7.10187 0.957161 7.10187 1.14586V5.44841C7.10931 5.50217 7.13062 5.55307 7.16371 5.59609C7.1968 5.63912 7.24052 5.67278 7.29057 5.69376L8.91347 6.27876C9.15877 6.37311 9.47957 6.24101 9.47957 6.03341L9.47942 1.74976ZM5.47917 1.41976C5.47917 1.32536 5.38482 1.23101 5.25272 1.19331L3.66772 0.608311C3.40357 0.495061 3.10162 0.627161 3.10162 0.815861V14.5914C3.10905 14.6452 3.13036 14.6961 3.16345 14.7391C3.19654 14.7821 3.24027 14.8157 3.29032 14.8367L4.91322 15.4217C5.15852 15.5161 5.47932 15.384 5.47932 15.1764L5.47917 1.41976Z" fill="#0E6476"/>
</svg>
