<svg width="16" height="16" viewBox="0 0 16 16" fill="none" xmlns="http://www.w3.org/2000/svg">
<path d="M13.5 5.28811C13.5 5.19376 13.4056 5.09941 13.2735 5.06166L11.6885 4.47666C11.4243 4.36341 11.1224 4.49551 11.1224 4.68426V11.5817C11.1298 11.6355 11.1511 11.6864 11.1842 11.7294C11.2173 11.7724 11.2611 11.8061 11.3111 11.8271L12.934 12.4121C13.1793 12.5064 13.5001 12.3743 13.5001 12.1667L13.5 5.28811ZM9.47936 10.5437C9.47936 10.4494 9.38501 10.355 9.25291 10.3173L7.66791 9.73226C7.40376 9.61901 7.10181 9.75111 7.10181 9.93981V14.2424C7.10925 14.2961 7.13056 14.347 7.16365 14.39C7.19673 14.4331 7.24046 14.4667 7.29051 14.4877L8.91341 15.0727C9.15871 15.1671 9.47951 15.035 9.47951 14.8274L9.47936 10.5437ZM9.47936 1.74976C9.47936 1.65541 9.38501 1.56106 9.25291 1.52331L7.66791 0.938311C7.40376 0.825061 7.10181 0.957161 7.10181 1.14586V5.44841C7.10925 5.50217 7.13056 5.55307 7.16365 5.59609C7.19673 5.63912 7.24046 5.67278 7.29051 5.69376L8.91341 6.27876C9.15871 6.37311 9.47951 6.24101 9.47951 6.03341L9.47936 1.74976ZM5.47911 1.41976C5.47911 1.32536 5.38476 1.23101 5.25266 1.19331L3.66766 0.608311C3.40351 0.495061 3.10156 0.627161 3.10156 0.815861V14.5914C3.10899 14.6452 3.1303 14.6961 3.16339 14.7391C3.19648 14.7821 3.24021 14.8157 3.29026 14.8367L4.91316 15.4217C5.15846 15.5161 5.47926 15.384 5.47926 15.1764L5.47911 1.41976Z" fill="#999592"/>
</svg>
