<svg width="141" height="22" viewBox="0 0 141 22" fill="none" xmlns="http://www.w3.org/2000/svg">
<path fill-rule="evenodd" clip-rule="evenodd" d="M38.7312 17.1338C39.0846 17.9392 39.6099 18.664 40.2729 19.2612L40.2747 19.2603C41.8721 20.5197 43.9029 21.1541 45.9635 21.0375C47.2714 21.0643 48.5699 20.8187 49.7702 20.3177C50.8025 19.8856 51.6828 19.1747 52.3048 18.2711C52.9164 17.3488 53.23 16.2723 53.206 15.1781C53.2425 14.0217 52.902 12.8834 52.2322 11.9231C51.4705 10.9547 50.4262 10.2273 49.2329 9.83382L45.9617 8.58623C45.2055 8.32832 44.5006 7.9476 43.8778 7.46057C43.6805 7.29258 43.5231 7.0857 43.4162 6.85397C43.3093 6.62223 43.2554 6.37105 43.2581 6.11747C43.2461 5.85734 43.2972 5.59809 43.4072 5.36025C43.5172 5.1224 43.6832 4.91247 43.8919 4.74707C44.3902 4.38949 45.0031 4.212 45.6235 4.24564C45.9938 4.22194 46.3652 4.27236 46.7143 4.39373C47.0633 4.51511 47.3825 4.70481 47.6517 4.95088C48.0982 5.43623 48.3459 6.06164 48.3484 6.71014C48.3523 6.78435 48.3856 6.8543 48.4414 6.90556C48.4973 6.95681 48.5714 6.98546 48.6485 6.98558H52.6111L52.622 6.98532C52.6621 6.98363 52.7014 6.97437 52.7378 6.95804C52.7741 6.94172 52.8068 6.91866 52.8339 6.89017C52.861 6.86169 52.882 6.82834 52.8957 6.79204C52.9094 6.75573 52.9156 6.71718 52.9138 6.67858C52.8876 5.66292 52.5785 4.67272 52.0188 3.81158C51.4004 2.89131 50.5207 2.16142 49.4843 1.70866C48.2998 1.19201 47.0103 0.93706 45.7103 0.962486C44.4388 0.93664 43.1763 1.17274 42.0072 1.65498C41.0108 2.06293 40.1594 2.74148 39.5567 3.60781C38.9762 4.47628 38.6773 5.49156 38.698 6.52428C38.6652 7.65653 39.0208 8.76761 39.7098 9.68549C40.4774 10.6268 41.5156 11.3296 42.6949 11.7065L46.2441 13.036C46.9353 13.2583 47.5723 13.6138 48.1165 14.0806C48.4747 14.4617 48.6618 14.9639 48.637 15.4774C48.6546 15.769 48.6015 16.0606 48.4818 16.3289C48.3621 16.5973 48.1791 16.8351 47.9474 17.0235C47.38 17.4176 46.6881 17.6096 45.99 17.5667C45.5567 17.5888 45.1234 17.5228 44.7183 17.3729C44.3132 17.223 43.9454 16.9927 43.6388 16.6969C43.0921 16.1084 42.7887 15.347 42.7862 14.5573C42.7822 14.4832 42.7488 14.4135 42.6929 14.3624C42.6371 14.3114 42.5631 14.2828 42.4861 14.2827H38.5245L38.5154 14.2829C38.4755 14.2842 38.4362 14.2931 38.3998 14.3091C38.3634 14.3251 38.3306 14.3478 38.3033 14.376C38.2761 14.4042 38.2548 14.4372 38.2408 14.4733C38.2268 14.5094 38.2203 14.5478 38.2217 14.5863C38.2043 15.4605 38.3779 16.3285 38.7312 17.1338ZM0.0924265 1.19085C0.0332468 1.24785 0 1.32517 0 1.40579V20.5969C0.00024786 20.6774 0.0336037 20.7545 0.0927562 20.8113C0.151909 20.8681 0.232032 20.9 0.315564 20.9H7.74973C9.69906 20.9446 11.6251 20.4842 13.3265 19.5668C14.8675 18.725 16.1296 17.48 16.9665 15.976C17.8144 14.4452 18.2485 12.7335 18.2288 10.9987C18.2485 9.26861 17.8144 7.56177 16.9666 6.03648C16.1238 4.53651 14.8632 3.29292 13.3265 2.4457C11.6273 1.52166 9.70044 1.05732 7.74973 1.10182H0.315564C0.231871 1.10182 0.151606 1.13384 0.0924265 1.19085ZM10.611 16.2142C9.61657 16.7928 8.46991 17.0825 7.30868 17.0488L5.07022 17.0497C4.98668 17.0494 4.90666 17.0173 4.84767 16.9603C4.78869 16.9033 4.75557 16.8262 4.75557 16.7457V5.24544C4.75557 5.16497 4.78869 5.08779 4.84767 5.03081C4.90665 4.97383 4.98668 4.9417 5.07022 4.94147H7.30868C8.46991 4.9077 9.61657 5.1975 10.611 5.77606C11.5006 6.31016 12.2095 7.08226 12.6511 7.99806C13.0962 8.93905 13.3265 9.96107 13.3265 10.9951C13.3265 12.0292 13.0962 13.0512 12.6511 13.9922C12.2098 14.9081 11.5008 15.6803 10.611 16.2142ZM75.6837 1.09998H79.8127C79.8964 1.09998 79.9767 1.13201 80.0359 1.18902C80.095 1.24602 80.1283 1.32334 80.1283 1.40396V16.5155C80.1283 16.5959 80.1614 16.673 80.2205 16.7298C80.2795 16.7866 80.3595 16.8186 80.4429 16.8186H87.4453C87.5288 16.8188 87.6089 16.8509 87.6679 16.9079C87.7268 16.9649 87.76 17.0421 87.76 17.1226V20.5889C87.76 20.6287 87.7518 20.6681 87.736 20.7049C87.7202 20.7417 87.697 20.7751 87.6678 20.8032C87.6386 20.8314 87.6039 20.8537 87.5657 20.8689C87.5275 20.8842 87.4866 20.892 87.4453 20.892H75.6837C75.6001 20.892 75.52 20.8601 75.4609 20.8033C75.4017 20.7465 75.3683 20.6694 75.3681 20.5889V1.40396C75.3681 1.32334 75.4013 1.24602 75.4605 1.18902C75.5197 1.13201 75.6 1.09998 75.6837 1.09998ZM113.169 1.10265H108.8V1.1027H108.799C108.758 1.1027 108.717 1.11053 108.679 1.12577C108.64 1.141 108.606 1.16332 108.577 1.19147C108.547 1.21961 108.524 1.25302 108.508 1.28979C108.493 1.32657 108.484 1.36598 108.484 1.40578V20.5916C108.485 20.672 108.518 20.7491 108.577 20.8059C108.636 20.8627 108.716 20.8946 108.8 20.8946H112.72C112.761 20.8946 112.802 20.8868 112.84 20.8716C112.878 20.8563 112.913 20.834 112.942 20.8059C112.971 20.7777 112.994 20.7443 113.01 20.7075C113.026 20.6708 113.034 20.6314 113.034 20.5916V9.2939C113.034 9.22634 113.058 9.16079 113.101 9.1076C113.145 9.05442 113.205 9.01664 113.273 9.00023C113.341 8.98382 113.413 8.98972 113.477 9.01699C113.541 9.04426 113.594 9.09135 113.628 9.15082L120.078 20.7347C120.105 20.7829 120.145 20.8232 120.194 20.8513C120.242 20.8795 120.298 20.8945 120.355 20.8946H124.724C124.807 20.8946 124.888 20.8627 124.947 20.8059C125.006 20.7491 125.039 20.672 125.039 20.5916V1.40488C125.039 1.36508 125.031 1.32569 125.015 1.28896C124.999 1.25224 124.976 1.21889 124.947 1.19083C124.917 1.16277 124.883 1.14055 124.844 1.12542C124.806 1.1103 124.765 1.10258 124.724 1.1027H120.804C120.763 1.1027 120.722 1.11053 120.684 1.12577C120.646 1.141 120.611 1.16332 120.582 1.19146C120.553 1.21961 120.529 1.25302 120.514 1.28979C120.498 1.32657 120.49 1.36598 120.49 1.40578V12.7034C120.489 12.7709 120.466 12.8365 120.422 12.8897C120.379 12.9428 120.319 12.9806 120.251 12.997C120.183 13.0134 120.111 13.0076 120.047 12.9803C119.983 12.953 119.93 12.9059 119.896 12.8465L113.446 1.26264C113.419 1.21437 113.379 1.17401 113.33 1.14584C113.281 1.11767 113.226 1.10275 113.169 1.10265ZM128.213 1.10265H140.145C140.187 1.10254 140.228 1.11026 140.266 1.12538C140.304 1.1405 140.339 1.16273 140.368 1.19079C140.397 1.21885 140.421 1.25219 140.437 1.28892C140.452 1.32565 140.461 1.36503 140.461 1.40484V4.47478C140.461 4.55525 140.427 4.63233 140.368 4.68915C140.309 4.74596 140.229 4.77787 140.145 4.77787H132.968C132.884 4.7781 132.804 4.81023 132.745 4.86721C132.686 4.92419 132.653 5.00137 132.653 5.08184V8.97034C132.653 9.05072 132.686 9.12781 132.745 9.18465C132.804 9.24149 132.884 9.27342 132.968 9.27342H140.145C140.229 9.27342 140.309 9.30545 140.368 9.36245C140.428 9.41945 140.461 9.49677 140.461 9.57738V12.5611C140.461 12.6415 140.428 12.7186 140.369 12.7754C140.31 12.8323 140.23 12.8642 140.146 12.8642H132.968C132.884 12.8644 132.804 12.8966 132.745 12.9535C132.686 13.0105 132.653 13.0877 132.653 13.1682V16.9154C132.653 16.9959 132.686 17.073 132.745 17.13C132.804 17.187 132.884 17.2191 132.968 17.2194H140.145C140.187 17.2192 140.228 17.227 140.266 17.2421C140.304 17.2572 140.339 17.2794 140.368 17.3075C140.397 17.3356 140.421 17.3689 140.437 17.4056C140.452 17.4424 140.461 17.4818 140.461 17.5216V20.5915C140.461 20.672 140.427 20.7491 140.368 20.8059C140.309 20.8627 140.229 20.8946 140.145 20.8946H128.213C128.129 20.8946 128.049 20.8627 127.99 20.8059C127.931 20.7491 127.898 20.672 127.897 20.5916V1.40578C127.897 1.36598 127.906 1.32657 127.921 1.2898C127.937 1.25302 127.96 1.21961 127.99 1.19147C128.019 1.16332 128.053 1.141 128.092 1.12577C128.13 1.11054 128.171 1.1027 128.212 1.1027H128.213V1.10265ZM30.3286 1.25108L37.1566 20.5978C37.1683 20.6314 37.1715 20.6671 37.1661 20.7021C37.1606 20.7371 37.1465 20.7704 37.1251 20.7991C37.1036 20.8279 37.0754 20.8513 37.0427 20.8674C37.0099 20.8836 36.9737 20.892 36.937 20.892H32.4794C32.4108 20.892 32.3441 20.8705 32.2893 20.8307C32.2345 20.791 32.1947 20.7351 32.1758 20.6716L31.3159 17.7385H24.4778L23.6169 20.6716C23.5984 20.7351 23.5587 20.791 23.5041 20.8308C23.4494 20.8706 23.3828 20.8921 23.3143 20.892H18.8558C18.819 20.892 18.7828 20.8836 18.7501 20.8674C18.7174 20.8513 18.6891 20.8279 18.6677 20.7991C18.6462 20.7704 18.6322 20.7371 18.6267 20.7021C18.6212 20.6671 18.6245 20.6314 18.6362 20.5978L25.4365 1.25108C25.4521 1.20695 25.4817 1.16864 25.5211 1.14154C25.5604 1.11444 25.6077 1.09991 25.6561 1.09999H30.109C30.1574 1.09977 30.2047 1.11425 30.2441 1.14137C30.2835 1.16849 30.3131 1.20688 30.3286 1.25108ZM27.6731 6.86569L25.6431 13.778C25.6303 13.8217 25.6282 13.8677 25.6369 13.9123C25.6456 13.9569 25.6649 13.999 25.6933 14.0353C25.7218 14.0715 25.7585 14.1009 25.8007 14.1212C25.8429 14.1415 25.8894 14.1521 25.9366 14.1521H29.8543C29.9016 14.1522 29.9482 14.1417 29.9905 14.1215C30.0328 14.1013 30.0697 14.0719 30.0982 14.0356C30.1267 13.9994 30.1461 13.9572 30.1549 13.9125C30.1637 13.8678 30.1615 13.8217 30.1487 13.778L28.1187 6.86569C28.105 6.81897 28.0758 6.77784 28.0356 6.74855C27.9954 6.71926 27.9463 6.70341 27.8959 6.70341C27.8455 6.70341 27.7965 6.71926 27.7562 6.74855C27.716 6.77784 27.6868 6.81897 27.6731 6.86569ZM107.45 20.5978L100.622 1.25108C100.607 1.20695 100.577 1.16864 100.538 1.14154C100.498 1.11444 100.451 1.09991 100.403 1.09999H95.9506C95.9022 1.09977 95.8549 1.11425 95.8155 1.14137C95.7761 1.16849 95.7465 1.20688 95.731 1.25108L88.9308 20.5978C88.9191 20.6314 88.9158 20.6671 88.9213 20.7021C88.9268 20.7371 88.9408 20.7704 88.9623 20.7991C88.9837 20.8279 89.012 20.8513 89.0447 20.8674C89.0774 20.8836 89.1136 20.892 89.1504 20.892H93.6089C93.6773 20.892 93.7439 20.8704 93.7985 20.8307C93.8531 20.7909 93.8928 20.735 93.9115 20.6716L94.7723 17.7385H101.61L102.471 20.6716C102.49 20.7351 102.53 20.791 102.585 20.8308C102.64 20.8705 102.706 20.892 102.775 20.892H107.232C107.269 20.8921 107.305 20.8837 107.338 20.8675C107.371 20.8514 107.399 20.8279 107.42 20.7992C107.442 20.7704 107.456 20.7371 107.461 20.7021C107.466 20.667 107.463 20.6313 107.451 20.5978H107.45ZM95.9386 13.7753L97.9686 6.86303C97.9823 6.8163 98.0115 6.77517 98.0517 6.74589C98.0919 6.7166 98.141 6.70075 98.1914 6.70075C98.2418 6.70075 98.2909 6.7166 98.3311 6.74589C98.3713 6.77517 98.4005 6.8163 98.4142 6.86303L100.444 13.7753C100.457 13.8191 100.459 13.8651 100.45 13.9098C100.442 13.9545 100.422 13.9967 100.394 14.033C100.365 14.0692 100.328 14.0986 100.286 14.1188C100.244 14.1391 100.197 14.1495 100.15 14.1495H96.2311C96.1839 14.1496 96.1373 14.1391 96.095 14.1189C96.0527 14.0987 96.0158 14.0693 95.9874 14.033C95.9589 13.9967 95.9396 13.9545 95.931 13.9098C95.9223 13.8651 95.9246 13.819 95.9376 13.7753H95.9386ZM67.8428 1.10266H71.9681V1.1027C72.0516 1.1027 72.1316 1.13463 72.1906 1.19147C72.2496 1.24831 72.2828 1.3254 72.2828 1.40578V20.5916C72.2828 20.6719 72.2496 20.749 72.1906 20.8059C72.1316 20.8627 72.0516 20.8946 71.9681 20.8946H67.8428C67.8014 20.8946 67.7605 20.8868 67.7223 20.8716C67.6842 20.8563 67.6495 20.834 67.6203 20.8059C67.5911 20.7777 67.5679 20.7443 67.5521 20.7076C67.5363 20.6708 67.5281 20.6314 67.5281 20.5916V13.338C67.5281 13.2574 67.4949 13.1801 67.4357 13.1231C67.3765 13.0661 67.2962 13.034 67.2126 13.034H61.0253C60.9416 13.034 60.8614 13.0661 60.8022 13.1231C60.743 13.1801 60.7097 13.2574 60.7097 13.338V20.5889C60.7097 20.6693 60.6766 20.7464 60.6176 20.8032C60.5586 20.8601 60.4786 20.892 60.3951 20.892H56.2697C56.1863 20.892 56.1063 20.8601 56.0473 20.8032C55.9883 20.7464 55.9551 20.6693 55.9551 20.5889V1.40307C55.9551 1.32269 55.9882 1.24559 56.0473 1.18876C56.1063 1.13192 56.1863 1.09998 56.2697 1.09998H60.3951C60.4778 1.09998 60.5571 1.1313 60.616 1.18718C60.6749 1.24306 60.7085 1.31901 60.7097 1.39862V8.80063C60.7098 8.88125 60.743 8.95857 60.8022 9.01557C60.8614 9.07257 60.9416 9.1046 61.0253 9.1046H67.2126C67.2962 9.1046 67.3765 9.07257 67.4357 9.01557C67.4949 8.95857 67.5281 8.88125 67.5281 8.80063V1.40574C67.5281 1.32536 67.5613 1.24827 67.6203 1.19143C67.6793 1.13459 67.7593 1.10266 67.8428 1.10266Z" fill="#0E353D"/>
</svg>
