<svg width="160" height="160" viewBox="0 0 160 160" fill="none" xmlns="http://www.w3.org/2000/svg">
<path d="M98.1111 56L104.001 61.8899L85.8909 80L104.001 98.1101L98.1111 104L80.001 85.8899L61.8909 104L56.001 98.11L74.111 80L56.001 61.8899L61.8909 56L80.001 74.1101L98.1111 56Z" fill="#0E353D"/>
<path d="M80 150C95.4811 150 109.788 144.974 121.38 136.466L128.523 143.609C115.064 153.892 98.2454 160 80 160C35.8172 160 0 124.183 0 80C0 35.8172 35.8172 0 80 0C124.183 0 160 35.8172 160 80C160 98.246 153.892 115.065 143.608 128.525L136.465 121.381C144.974 109.79 150 95.4818 150 80C150 41.3401 118.66 10 80 10C41.3401 10 10 41.3401 10 80C10 118.66 41.3401 150 80 150Z" fill="#6EA2AD"/>
</svg>
