<svg xmlns="http://www.w3.org/2000/svg" width="35.625" height="35.625" viewBox="0 0 35.625 35.625">
  <g id="Group_141950" data-name="Group 141950" transform="translate(-12.676 -33.566)">
    <g id="microsoft-teams-1" transform="translate(12.676 33.566)">
      <circle id="Ellipse_22308" data-name="Ellipse 22308" cx="5.196" cy="5.196" r="5.196" transform="translate(13.73 1.484)" fill="#7b83eb"/>
      <path id="Path_61067" data-name="Path 61067" d="M17.146,7H12.44l.023.1,0,.009.024.1a5.2,5.2,0,0,0,6.14,3.754V8.484A1.488,1.488,0,0,0,17.146,7Z" transform="translate(1.409 0.793)" opacity="0.1"/>
      <path id="Path_61068" data-name="Path 61068" d="M15.994,8H12.783a5.2,5.2,0,0,0,4.695,2.969V9.484A1.488,1.488,0,0,0,15.994,8Z" transform="translate(1.448 0.906)" opacity="0.2"/>
      <circle id="Ellipse_22309" data-name="Ellipse 22309" cx="3.897" cy="3.897" r="3.897" transform="translate(26.719 4.453)" fill="#5059c9"/>
      <path id="Path_61069" data-name="Path 61069" d="M31.463,12H22.712a.713.713,0,0,0-.713.713v9.029a5.7,5.7,0,0,0,4.416,5.66,5.573,5.573,0,0,0,6.718-5.451V13.67A1.67,1.67,0,0,0,31.463,12Z" transform="translate(2.492 1.36)" fill="#5059c9"/>
      <path id="Path_61070" data-name="Path 61070" d="M26.813,13.67V24.246A8.9,8.9,0,0,1,10.2,28.7a7.986,7.986,0,0,1-.557-1.113,9.315,9.315,0,0,1-.367-1.113A9.174,9.174,0,0,1,9,24.246V13.67A1.668,1.668,0,0,1,10.67,12H25.143a1.668,1.668,0,0,1,1.67,1.67Z" transform="translate(1.02 1.36)" fill="#7b83eb"/>
      <path id="Path_61071" data-name="Path 61071" d="M15.994,8H12.783a5.2,5.2,0,0,0,4.695,2.969V9.484A1.488,1.488,0,0,0,15.994,8Z" transform="translate(1.448 0.906)" opacity="0.2"/>
      <path id="Path_61072" data-name="Path 61072" d="M19.02,12V26.105a1.47,1.47,0,0,1-1.158,1.436,1.075,1.075,0,0,1-.323.045H9.646a9.315,9.315,0,0,1-.367-1.113A9.174,9.174,0,0,1,9,24.246V13.67A1.668,1.668,0,0,1,10.67,12Z" transform="translate(1.02 1.36)" opacity="0.1"/>
      <path id="Path_61073" data-name="Path 61073" d="M17.906,12V27.219a1.077,1.077,0,0,1-.045.323A1.47,1.47,0,0,1,16.426,28.7H10.2a7.986,7.986,0,0,1-.557-1.113,9.315,9.315,0,0,1-.367-1.113A9.174,9.174,0,0,1,9,24.246V13.67A1.668,1.668,0,0,1,10.67,12Z" transform="translate(1.02 1.36)" opacity="0.2"/>
      <path id="Path_61074" data-name="Path 61074" d="M17.906,12V24.992a1.487,1.487,0,0,1-1.481,1.481H9.278A9.174,9.174,0,0,1,9,24.246V13.67A1.668,1.668,0,0,1,10.67,12Z" transform="translate(1.02 1.36)" opacity="0.2"/>
      <path id="Path_61075" data-name="Path 61075" d="M10.67,12A1.668,1.668,0,0,0,9,13.67V24.246a9.174,9.174,0,0,0,.278,2.227h6.034a1.487,1.487,0,0,0,1.481-1.481V12Z" transform="translate(1.02 1.36)" opacity="0.2"/>
      <path id="Path_61076" data-name="Path 61076" d="M1.484,8H16.329a1.484,1.484,0,0,1,1.484,1.484V24.329a1.484,1.484,0,0,1-1.484,1.484H1.484A1.484,1.484,0,0,1,0,24.329V9.484A1.484,1.484,0,0,1,1.484,8Z" transform="translate(0 0.906)" fill="#4b53bc"/>
      <path id="Path_61077" data-name="Path 61077" d="M12.882,13.2H9.553v8.929H7.369V13.2H4.02V11.005h8.862Z" transform="translate(0.455 1.247)" fill="#fff"/>
      <path id="Path_61078" data-name="Path 61078" d="M0,0H35.625V35.625H0Z" fill="none"/>
    </g>
  </g>
</svg>
