<svg xmlns="http://www.w3.org/2000/svg" width="40" height="40" viewBox="0 0 40 40">
    <defs>
        <linearGradient id="a" x1=".002%" x2="99.998%" y1="49.998%" y2="49.998%">
            <stop offset="0%" stop-color="#E6E6E6"/>
            <stop offset="16%" stop-color="#F6F6F6"/>
            <stop offset="30%" stop-color="#FFF"/>
            <stop offset="70%" stop-color="#FFF"/>
            <stop offset="84%" stop-color="#F6F6F6"/>
            <stop offset="100%" stop-color="#E6E6E6"/>
        </linearGradient>
        <linearGradient id="b" x1="59.455%" x2="40.713%" y1="99.839%" y2="10.47%">
            <stop offset="0%" stop-color="#1B84E2"/>
            <stop offset="35%" stop-color="#29F"/>
            <stop offset="100%" stop-color="#00DCFF"/>
        </linearGradient>
        <linearGradient id="c" x1="0%" x2="99.989%" y1="49.998%" y2="49.998%">
            <stop offset="0%" stop-color="#D61132"/>
            <stop offset="35%" stop-color="#E14"/>
            <stop offset="100%" stop-color="#E46"/>
        </linearGradient>
        <linearGradient id="d" x1="6.684%" x2="96.486%" y1="78.114%" y2="36.534%">
            <stop offset="0%" stop-color="#FC2"/>
            <stop offset="60%" stop-color="#FC2"/>
            <stop offset="100%" stop-color="#FF9C28"/>
        </linearGradient>
        <linearGradient id="e" x1="42.546%" x2="63.734%" y1="2.422%" y2="95.223%">
            <stop offset="0%" stop-color="#5D687A"/>
            <stop offset="100%" stop-color="#242A36"/>
        </linearGradient>
        <radialGradient id="f" cx="61.912%" cy="33.34%" r="70.866%" fx="61.912%" fy="33.34%" gradientTransform="scale(.87522 1) rotate(-9.841 .663 -.18)">
            <stop offset="0%" stop-color="#FFF"/>
            <stop offset="100%" stop-color="#FFF" stop-opacity="0"/>
        </radialGradient>
        <radialGradient id="g" cx="18.247%" cy="46.653%" r="121.242%" fx="18.247%" fy="46.653%" gradientTransform="matrix(1 0 0 .4398 0 .261)">
            <stop offset="0%" stop-color="#FFF"/>
            <stop offset="100%" stop-color="#FFF" stop-opacity="0"/>
        </radialGradient>
        <radialGradient id="h" cx="81.689%" cy="304.035%" r="79.481%" fx="81.689%" fy="304.035%" gradientTransform="matrix(.6902 0 0 1 .253 0)">
            <stop offset="0%" stop-color="#FFF"/>
            <stop offset="100%" stop-color="#FFF" stop-opacity="0"/>
        </radialGradient>
    </defs>
    <g fill="none" fill-rule="nonzero">
        <circle cx="20" cy="19.831" r="19.153" fill="#FFF"/>
        <path fill="url(#a)" d="M8.066 15.093c-.119 8.122 4.85 15.024 11.832 18.273 6.883-3.11 11.877-9.937 11.943-18.015a20.17 20.17 0 0 0-.105-2.182 19.895 19.895 0 0 0-23.544-.013v.056a17.678 17.678 0 0 0-.126 1.881zm1.488-.891c3.73-2.599 7.25-3.2 9.051-3.324h.026c.618-.044 1.057-.05 1.216-.05H20c.16 0 .597 0 1.217.05h.036c1.801.127 5.322.729 9.042 3.324a18.51 18.51 0 0 1-.702 6.44 16.95 16.95 0 0 1-3.09 5.948c-1.676 2.071-3.886 3.781-6.578 5.085-2.67-1.297-4.87-2.992-6.542-5.046a16.861 16.861 0 0 1-3.098-5.907 18.654 18.654 0 0 1-.73-6.52z"/>
        <path fill="url(#b)" d="M8.066 15.093c0-.635.05-1.262.119-1.881v-.056l.01-.081a19.698 19.698 0 0 1 1.307-5.108A19.973 19.973 0 0 1 14.48.763l-.075.022-.202.061a19.878 19.878 0 0 0-7.932 33.331c.397.12.8.229 1.207.327 2.558.593 5.207.674 7.797.24a18.698 18.698 0 0 0 4.459-1.3l.08-.037.044-.02.047-.022C12.917 30.116 7.947 23.22 8.066 15.093z"/>
        <path fill="url(#c)" d="M25.676.847A19.922 19.922 0 0 0 14.48.771c-2.171 2.001-3.871 4.458-4.978 7.195a19.698 19.698 0 0 0-1.3 5.117l-.01.081a19.895 19.895 0 0 1 23.544.014l.13.098c.207.156.409.314.609.477a20 20 0 0 1 3.288 3.366c.137.18.27.362.4.545a19.673 19.673 0 0 1 3.115 6.805C41.748 14.231 35.771 3.851 25.676.847z"/>
        <path fill="url(#d)" d="M36.161 17.67c-.13-.184-.263-.367-.4-.546a20 20 0 0 0-3.286-3.38c-.2-.17-.402-.32-.609-.476l-.13-.099c.074.725.11 1.453.105 2.182-.066 8.078-5.06 14.905-11.943 18.015l-.047.022-.044.02-.08.038a18.698 18.698 0 0 1-4.46 1.3c-2.588.435-5.238.354-7.796-.24a22.474 22.474 0 0 1-1.234-.325 19.886 19.886 0 0 0 33.04-9.706 19.673 19.673 0 0 0-3.116-6.806z"/>
        <path fill="url(#e)" d="M18.788 21.454v3.26c.001.223.182.403.405.403h1.47c.223 0 .404-.18.405-.403v-3.26a2.881 2.881 0 1 0-2.28 0z"/>
        <path fill="url(#f)" d="M25.676.847a19.83 19.83 0 0 0-4.895-.822 12.495 12.495 0 0 0-.937 9.292h.271a19.808 19.808 0 0 1 11.62 3.852l.131.099a20 20 0 0 1 3.897 3.85c.117.155.23.31.339.468a12.429 12.429 0 0 0 3.312-1.805A19.878 19.878 0 0 0 25.676.847z" opacity=".17"/>
        <path fill="url(#g)" d="M8.066 15.093c0-.635.05-1.262.119-1.881v-.056l.01-.081a19.698 19.698 0 0 1 1.307-5.108 19.95 19.95 0 0 1 1.12-2.325 12.647 12.647 0 0 0-2.41-1.744 19.85 19.85 0 0 0-6.44 23.76 12.605 12.605 0 0 0 8.64-3.119 19.068 19.068 0 0 1-2.346-9.446z" opacity=".2"/>
        <path fill="url(#h)" d="M29.773 23.925a20.508 20.508 0 0 1-9.875 9.441l-.047.022-.044.02-.08.038a18.698 18.698 0 0 1-4.46 1.3c-.155.027-.313.05-.47.073a12.481 12.481 0 0 0 .101 3.445c.044.268.102.53.17.792a19.898 19.898 0 0 0 22.463-9.96 12.542 12.542 0 0 0-7.758-5.17z" opacity=".3"/>
    </g>
</svg>
