<svg xmlns="http://www.w3.org/2000/svg" width="40" height="38" viewBox="0 0 40 38">
    <defs>
        <radialGradient id="a" cx="73.106%" cy="73.064%" r="17.625%" fx="73.106%" fy="73.064%" gradientTransform="matrix(.70265 .70265 -.71154 .69386 .737 -.29)">
            <stop offset="0%" stop-color="#E77056"/>
            <stop offset="100%" stop-color="#DB453F"/>
        </radialGradient>
        <linearGradient id="b" x1="66.275%" x2="37.685%" y1="13.564%" y2="98.772%">
            <stop offset="28%" stop-color="#B60600"/>
            <stop offset="100%" stop-color="#D0422B" stop-opacity="0"/>
        </linearGradient>
        <linearGradient id="c" x1="15.652%" x2="70.986%" y1="10.028%" y2="99.938%">
            <stop offset="0%" stop-color="#D0422B" stop-opacity="0"/>
            <stop offset="100%" stop-color="#B60600"/>
        </linearGradient>
        <linearGradient id="d" x1="10.258%" x2="87.282%" y1="72.723%" y2="35.966%">
            <stop offset="34%" stop-color="#B70801"/>
            <stop offset="100%" stop-color="#D0422B" stop-opacity="0"/>
        </linearGradient>
        <linearGradient id="e" x1="28.7%" x2="61.226%" y1="92.138%" y2="-.156%">
            <stop offset="0%" stop-color="#E6E6E6"/>
            <stop offset="100%" stop-color="#FAFAFA"/>
        </linearGradient>
        <linearGradient id="f" x1="13.547%" x2="93.387%" y1="71.219%" y2="29.462%">
            <stop offset="16%" stop-color="#C62522"/>
            <stop offset="56%" stop-color="#E77056"/>
            <stop offset="71%" stop-color="#E77056"/>
            <stop offset="100%" stop-color="#CF433D"/>
        </linearGradient>
        <linearGradient id="g" x1="11.415%" x2="97.237%" y1="68.496%" y2="17.312%">
            <stop offset="0%" stop-color="#ECC07E"/>
            <stop offset="1%" stop-color="#EDC180"/>
            <stop offset="26%" stop-color="#F5D5A8"/>
            <stop offset="46%" stop-color="#FBE1C0"/>
            <stop offset="58%" stop-color="#FDE6C9"/>
            <stop offset="69%" stop-color="#FDE5C7"/>
            <stop offset="81%" stop-color="#F7D8AD"/>
            <stop offset="100%" stop-color="#ECC07E"/>
        </linearGradient>
        <linearGradient id="h" x1="14.447%" x2="83.607%" y1="30.369%" y2="67.255%">
            <stop offset="0%" stop-color="#F8E6C9"/>
            <stop offset="38%" stop-color="#F6E0BE"/>
            <stop offset="79%" stop-color="#F0C789"/>
            <stop offset="100%" stop-color="#EDBC73"/>
        </linearGradient>
        <linearGradient id="i" x1="5.22%" x2="101.513%" y1="34.408%" y2="66.117%">
            <stop offset="0%" stop-color="#7EC0E5"/>
            <stop offset="19%" stop-color="#63B3DF"/>
            <stop offset="48%" stop-color="#178CCB"/>
            <stop offset="67%" stop-color="#0269B0"/>
            <stop offset="100%" stop-color="#025596"/>
        </linearGradient>
        <linearGradient id="j" x1="58.37%" x2="41.63%" y1="9.407%" y2="93.688%">
            <stop offset="0%" stop-color="#EFC586" stop-opacity="0"/>
            <stop offset="45%" stop-color="#EBB667"/>
            <stop offset="83%" stop-color="#CF9A59"/>
            <stop offset="100%" stop-color="#BC864F"/>
        </linearGradient>
        <linearGradient id="k" x1="23.058%" x2="78.701%" y1="40.886%" y2="62.887%">
            <stop offset="54%" stop-color="#EFC586" stop-opacity="0"/>
            <stop offset="100%" stop-color="#BC864F"/>
        </linearGradient>
        <linearGradient id="l" x1="45.951%" x2="57.048%" y1="43.936%" y2="52.825%">
            <stop offset="16%" stop-color="#2D93CF"/>
            <stop offset="68%" stop-color="#025C9F"/>
            <stop offset="89%" stop-color="#026EB6"/>
        </linearGradient>
        <linearGradient id="m" x1="72.163%" x2="18.793%" y1="65.551%" y2="26.029%">
            <stop offset="33%" stop-color="#459CD2"/>
            <stop offset="47%" stop-color="#519CCF" stop-opacity="0"/>
        </linearGradient>
        <linearGradient id="n" x1="38.993%" x2="60.586%" y1="62.105%" y2="34.291%">
            <stop offset="83%" stop-color="#EDC483" stop-opacity="0"/>
            <stop offset="90%" stop-color="#D5A669" stop-opacity=".32"/>
            <stop offset="95%" stop-color="#C8955A" stop-opacity=".5"/>
            <stop offset="97%" stop-color="#C48F55" stop-opacity=".65"/>
            <stop offset="100%" stop-color="#BF894F" stop-opacity=".8"/>
        </linearGradient>
        <linearGradient id="o" x1="-.082%" x2="99.885%" y1="49.942%" y2="49.942%">
            <stop offset="2%" stop-color="#4199CF"/>
            <stop offset="10%" stop-color="#2282C5"/>
            <stop offset="35%" stop-color="#1570B2" stop-opacity=".59"/>
            <stop offset="71%" stop-color="#025596" stop-opacity="0"/>
        </linearGradient>
        <linearGradient id="p" x1="43.665%" x2="56.262%" y1="70.522%" y2="30.502%">
            <stop offset="78%" stop-color="#EDC483" stop-opacity="0"/>
            <stop offset="86%" stop-color="#D5A669" stop-opacity=".32"/>
            <stop offset="92%" stop-color="#C8955A" stop-opacity=".5"/>
            <stop offset="96%" stop-color="#C28E53" stop-opacity=".75"/>
            <stop offset="100%" stop-color="#BF894F" stop-opacity=".9"/>
        </linearGradient>
    </defs>
    <g fill="none" fill-rule="nonzero">
        <path fill="url(#a)" d="M34.566 31.873a18.275 18.275 0 0 1-26.075 0c-7.2-7.291-7.2-19.113 0-26.404a18.275 18.275 0 0 1 26.075 0c7.2 7.291 7.2 19.113 0 26.404z"/>
        <path fill="url(#b)" d="M32.17 3.423a29.1 29.1 0 0 1 1.913 8.178c.07.67.115 1.72.125 2.398.126 8.75-4.322 16.237-12.656 18.778a28.13 28.13 0 0 0 9.389 1.951c5.375-3.227 8.772-8.99 9.022-15.314.25-6.323-2.68-12.344-7.783-15.996l-.01.005z"/>
        <path fill="url(#c)" d="M21.528 37.342c3.31.005 6.56-.897 9.405-2.61a28.14 28.14 0 0 1-9.39-1.95h-.015C13.178 30.25 8.725 22.753 8.852 13.999c.01-.684.054-1.75.128-2.418l-.022-.03a28.942 28.942 0 0 0-5.824 5.838 19.33 19.33 0 0 0-.044 1.282c0 10.312 8.255 18.671 18.438 18.671z"/>
        <path fill="url(#d)" d="M8.98 11.586v-.06c3.525-2.595 7.86-4.573 12.548-4.605 4.688.032 9.024 2.01 12.542 4.604v.081a29.074 29.074 0 0 0-1.912-8.175 18.243 18.243 0 0 0-18.54-1.611C7.604 4.712 3.598 10.662 3.134 17.388a28.942 28.942 0 0 1 5.824-5.837l.022.035z"/>
        <path fill="url(#e)" d="M21.528 31.003c7.2-2.186 11.04-8.645 10.938-16.193-.01-.59-.049-1.51-.11-2.085 0-.018 0-.033-.008-.052-3.04-2.23-6.776-3.943-10.82-3.97-4.044.027-7.78 1.74-10.812 3.97v.052c-.061.576-.1 1.495-.11 2.085-.117 7.548 3.722 14.007 10.922 16.193z"/>
        <path fill="url(#f)" d="M27.622 23.124a.288.288 0 0 0-.083-.193l-2.105-2.143-.082-.087a.276.276 0 0 0-.199-.11.309.309 0 0 0-.078 0 .313.313 0 0 0-.184.142c-.99 1.544-2.938 1.476-2.938 1.476h-.075a2.874 2.874 0 0 1-2.55-1.438 2.95 2.95 0 0 1 0-2.957 2.874 2.874 0 0 1 2.55-1.439 3.885 3.885 0 0 1 2.813 1.283c.067.073.136.159.201.223a.276.276 0 0 0 .199.086.266.266 0 0 0 .193-.098l2.097-2.454a.32.32 0 0 0 .066-.24.353.353 0 0 0-.06-.164 6.899 6.899 0 0 0-7.764-2.391c-2.826.974-4.722 3.669-4.71 6.692.013 3.024 1.932 5.702 4.767 6.652a6.9 6.9 0 0 0 7.743-2.46c.018-.01.213-.236.199-.38z"/>
        <path fill="url(#g)" d="M34.077 11.586v-.06C30.552 8.93 26.216 6.952 21.528 6.92c-4.687.032-9.023 2.01-12.542 4.604v.06c-.073.668-.117 1.741-.128 2.42-.127 8.753 4.326 16.244 12.676 18.782 8.35-2.532 12.804-10.029 12.677-18.782-.017-.685-.06-1.752-.134-2.42zM21.528 30.78c-7.055-2.14-10.817-8.47-10.71-15.868.009-.58.046-1.48.107-2.043v-.052c2.969-2.192 6.634-3.864 10.597-3.891 3.962.027 7.625 1.7 10.597 3.89v.053c.06.563.098 1.463.106 2.043.12 7.398-3.642 13.727-10.697 15.868z"/>
        <path fill="url(#h)" d="M14.614 23.43a.567.567 0 0 1-.283-.126c-.123-.103-4.81-3.098-5.78-3.714 0 0-2.863 4.451-8.482 5.598 0 0-.106.029-.055.27.052.24.625 2.094 2.364 3.88.267.273.595.477.956.594.536.143 1.535.108 2.1 0-.377.302-.773.58-1.184.834a.134.134 0 0 0-.056.149c.023.077.103.182.298.316.37.263 1.577 1.013 2.353 1.315 0 0 .277.19 1.407.195h1.042l.806-.454-.372.466c.705.013 1.409-.04 2.103-.158.279-.053.544-.16.782-.316.917-.613 3.159-2.616 4.887-8.284l-2.886-.564z"/>
        <path fill="url(#i)" d="M17.99 19.826s-6.698-2.802-7.132-2.975a.745.745 0 0 0-.272-.057.424.424 0 0 0-.347.159l-1.86 2.531s5.815 3.71 5.952 3.826a.567.567 0 0 0 .283.127l3.224.614s.382-3.02.468-3.556c.08-.558-.315-.669-.315-.669z"/>
        <path fill="url(#j)" d="M14.614 23.43a.424.424 0 0 1-.098-.023C11.023 30.554 6.84 32.55 6.84 32.55s.276.19 1.406.194h1.047l.806-.454-.372.462c.705.013 1.409-.04 2.103-.158.279-.053.544-.16.782-.316.917-.613 3.159-2.617 4.887-8.284l-2.886-.564z"/>
        <path fill="url(#k)" d="M14.614 23.43a.424.424 0 0 1-.098-.023C11.023 30.554 6.84 32.55 6.84 32.55s.276.19 1.406.194h1.047l.806-.454-.372.462c.705.013 1.409-.04 2.103-.158.279-.053.544-.16.782-.316.917-.613 3.159-2.617 4.887-8.284l-2.886-.564z" opacity=".5"/>
        <path fill="url(#l)" d="M13.411 17.913l4.558-9.685s.303-.717 1.183-.383c.853.36.359 1.242.359 1.242l-3.888 9.758-2.212-.932z"/>
        <path fill="url(#m)" d="M14.36 18.057l3.938-9.153s.199-.437.157-.68a.237.237 0 0 0-.159-.199.232.232 0 0 0-.244.062.327.327 0 0 0-.033.033.657.657 0 0 0-.056.1l-4.552 9.693.769.237c.036.013.075.01.11-.008a.142.142 0 0 0 .07-.085z"/>
        <path fill="url(#n)" d="M13.12 25.95c.47-.766.938-1.611 1.396-2.546a.578.578 0 0 1-.185-.103c-.123-.103-4.81-3.098-5.78-3.714-.43.62-.915 1.197-1.453 1.723l6.022 4.64z"/>
        <path fill="url(#o)" d="M17.99 19.826l-.873-.364c-.781-.329-.925.1-.925.1l-.014.047v.01c0 .017-.01.038-.017.057l-.019.055c-.5 1.544-1.614 3.657-1.623 3.677.032.011.065.02.098.024l3.22.619s.383-3.02.47-3.556c.079-.558-.316-.669-.316-.669z"/>
        <path fill="url(#p)" d="M16.713 26.23c.268-.678.53-1.424.78-2.249l-2.88-.55a.424.424 0 0 1-.099-.024c-.412.842-.833 1.61-1.25 2.315l3.449.508z"/>
    </g>
</svg>
