<svg fill="none" xmlns="http://www.w3.org/2000/svg"><path d="M10.398 4.722c0-.094-.094-.19-.226-.226L8.587 3.91c-.265-.114-.566.019-.566.207v6.898a.312.312 0 00.188.245l1.623.585c.245.094.566-.038.566-.245zm-4.02 5.256c0-.095-.095-.19-.227-.227l-1.585-.585c-.264-.113-.566.02-.566.208v4.302a.312.312 0 00.189.246l1.622.585c.246.094.567-.038.567-.246zm0-8.794c0-.095-.095-.19-.227-.227L4.566.372C4.302.259 4 .392 4 .58v4.302a.312.312 0 00.189.246l1.622.585c.246.094.567-.038.567-.246zm-4-.33c0-.095-.095-.19-.227-.227L.566.042C.302-.071 0 .062 0 .25v13.774a.312.312 0 00.188.246l1.623.585c.246.094.566-.038.566-.246V.854z" fill="#0e353d"/></svg>