<svg width="48" height="32" fill="none" xmlns="http://www.w3.org/2000/svg"><rect width="48" height="32" rx="4" fill="#FFD7D7"/><path d="M28.1 19H21v1.5h8l-.9-1.5zM40 22H21v1.5h20L40 22zM21 25h19l1 1.5H21V25zM10.502 14.5a2.502 2.502 0 10.914 4.83l1.119 1.119a4.002 4.002 0 111.414-1.414l-1.118-1.119a2.502 2.502 0 00-2.329-3.416z" fill="#191919" fill-opacity=".3"/><path fill-rule="evenodd" clip-rule="evenodd" d="M4 28h13s-.008-.648-.28-1.5c-.518-1.628-1.998-4-6.22-4-4.222 0-5.702 2.372-6.22 4C4.007 27.352 4 28 4 28zm1.88-1.5c.07-.159.15-.32.247-.48C6.676 25.1 7.81 24 10.5 24c2.69 0 3.824 1.1 4.373 2.02.096.16.178.321.247.48H5.88z" fill="#191919" fill-opacity=".3"/></svg>