<svg width="48" height="32" fill="none" xmlns="http://www.w3.org/2000/svg"><rect width="48" height="32" rx="4" fill="#FFEED1"/><mask id="id_generic_svg__a" maskUnits="userSpaceOnUse" x="0" y="0" width="48" height="32"><rect width="48" height="32" rx="4" fill="#fff"/></mask><g mask="url(#id_generic_svg__a)" fill-opacity=".3"><path fill-rule="evenodd" clip-rule="evenodd" d="M26.172 25.43a.303.303 0 00-.392.201 4.136 4.136 0 01-.428.528 1.544 1.544 0 01-.492.405c-.058-.024-.245-.238-.198-1.996.046-1.676.508-2.477.517-2.496a.498.498 0 00-.055-.583.282.282 0 00-.458.069c-.025.04-.603.996-.656 2.981-.037 1.38-.007 2.736.782 2.856a.432.432 0 00.068.005c.166 0 .437-.094.918-.608.245-.244.448-.526.601-.834a.451.451 0 00-.207-.528zm17.503-1.017c-.106.006-.335-.254-.557-1.246-.107-.5-.186-1.006-.237-1.516L42.823 21l-.413.35c-.934.79-3.544 2.892-4.398 3.133a.335.335 0 01-.38-.067 1.813 1.813 0 01-.14-1l.115-1.015-.608.623c-.255.261-.965.976-1.189 1.138-.306.222-.45.19-.508.15a1.048 1.048 0 01-.228-.678c-.117-1.02-.364-1.643-.766-1.903-.329-.214-.717-.151-1.154.185a5.946 5.946 0 00-1.677 2.634c-.234-.656-1.108-.442-2.496-.041-.15.043-.295.085-.433.123a1.1 1.1 0 01-.673-.012.319.319 0 00-.192-.16.518.518 0 00.068-.555.277.277 0 00-.185-.176.261.261 0 00-.244.057l-.125.111a.418.418 0 00-.197-.343.281.281 0 00-.255.018.309.309 0 00-.144.221 6.381 6.381 0 00-.159.758c-.092.649-.033 1.093.183 1.36a.525.525 0 00.406.22.474.474 0 00.18-.037c.254-.14.453-.37.561-.65.295.09.607.091.902.004.139-.037.287-.08.438-.125.528-.152 1.472-.424 1.79-.356.012.356.043.712.092 1.065.146 1 .435 1.548.86 1.63l.739.138-.449-.802a2.358 2.358 0 01-.234-1.54 5.092 5.092 0 011.551-2.82.56.56 0 01.579-.158c.194.126.344.58.423 1.278.074.66.264 1.097.565 1.299.3.201.658.143 1.079-.163.275-.226.538-.468.788-.724.03.308.138.603.314.852.224.29.597.4.933.276.918-.259 3.262-2.138 4.204-2.914.04.29.1.65.18 1.013.277 1.246.673 1.868 1.171 1.848a.384.384 0 00.3-.429.369.369 0 00-.322-.403zm-16.816.586a.558.558 0 01-.039-.399c.122.07.249.134.38.192a1.12 1.12 0 01-.34.208l-.001-.001z" fill="#000"/><path d="M10.502 5.5a2.502 2.502 0 10.914 4.83l1.119 1.119a4.002 4.002 0 111.414-1.414L12.83 8.916A2.502 2.502 0 0010.502 5.5z" fill="#191919"/><path fill-rule="evenodd" clip-rule="evenodd" d="M4 19h13s-.008-.648-.28-1.5c-.518-1.629-1.998-4-6.22-4-4.222 0-5.702 2.371-6.22 4C4.007 18.352 4 19 4 19zm1.88-1.5c.07-.159.15-.32.247-.48C6.676 16.1 7.81 15 10.5 15c2.69 0 3.824 1.1 4.373 2.02.096.16.178.321.247.48H5.88z" fill="#191919"/></g></svg>